Coordinates
version=1
nRows=14
nColumns=28
inDegrees=yes

Units are S.I. units (second, meters, Newtons, ...)
Angles are in degrees.

endheader
time	pelvis_tilt	pelvis_list	pelvis_rotation	pelvis_tx	pelvis_ty	pelvis_tz	hip_flexion_r	hip_adduction_r	hip_rotation_r	knee_angle_r	ankle_angle_r	subtalar_angle_r	mtp_angle_r	hip_flexion_l	hip_adduction_l	hip_rotation_l	knee_angle_l	socket_flexion	socket_adduction	socket_rotation	socket_tx	socket_ty	socket_tz	foot_flex	lumbar_extension	lumbar_bending	lumbar_rotation
      0.62500000	     -1.76862917	     -2.96137547	      8.68993196	     -0.01551162	      0.98887924	      0.25752372	     25.67748911	      1.67676224	     -8.75502780	     -5.39954005	     17.11894974	    -18.39057652	    -16.13790827	    -23.95208136	     -6.74460703	     18.38238429	      7.64505192	     10.76890358	      0.00000000	      0.00000000	      0.00000000	      0.00000000	      0.00000000	      7.80025280	     -8.34001786	      3.38164418	     -7.05702211
      0.62916667	     -1.82325444	     -2.95233421	      8.70173955	     -0.01538969	      0.98876490	      0.25743249	     25.82711706	      1.60954440	     -9.08258399	     -5.59564304	     17.03767725	    -17.88288891	    -14.54869478	    -23.90485558	     -6.72557170	     18.40369474	      7.65396631	     10.76436493	      0.00000000	      0.00000000	      0.00000000	      0.00000000	      0.00000000	      7.79418252	     -8.25352574	      3.35299006	     -7.00330723
      0.63333333	     -1.77833717	     -2.98079013	      8.77057841	     -0.00900615	      0.98787805	      0.25765511	     26.01318629	      1.66942819	     -8.88603974	     -6.45753307	     16.65943202	    -18.06844143	    -14.64106913	    -24.12185105	     -6.78277474	     18.39388878	      7.31497274	     10.80158366	      0.00000000	      0.00000000	      0.00000000	      0.00000000	      0.00000000	      7.72206262	     -8.24888425	      3.49159166	     -7.15403262
      0.63750000	     -1.70721875	     -3.07268722	      8.73798573	     -0.00250813	      0.98700722	      0.25805782	     26.19031003	      1.84110797	     -8.65874498	     -7.35094775	     16.25732820	    -18.13231625	    -14.59450275	    -24.38707767	     -6.86058601	     18.19391650	      6.96997471	     10.83179659	      0.00000000	      0.00000000	      0.00000000	      0.00000000	      0.00000000	      7.66357113	     -8.28511470	      3.66415965	     -7.15744229
      0.64166667	     -1.78357621	     -3.10920723	      8.71484584	      0.00404433	      0.98598125	      0.25831141	     26.55912467	      1.91100507	     -8.43299777	     -8.36614099	     15.82962148	    -18.25359079	    -14.29883486	    -24.45823004	     -6.84807326	     18.11858605	      6.55364575	     10.86056319	      0.00000000	      0.00000000	      0.00000000	      0.00000000	      0.00000000	      7.57716891	     -8.09862894	      3.81767474	     -7.23173808
      0.64583333	     -1.65749834	     -3.21143341	      8.68784577	      0.01064386	      0.98531804	      0.25861463	     26.65548796	      2.08634831	     -8.29861421	     -9.25027342	     15.32447036	    -18.25427805	    -14.21715070	    -24.72918867	     -6.92147448	     17.94436635	      6.09545270	     10.87748803	      0.00000000	      0.00000000	      0.00000000	      0.00000000	      0.00000000	      7.46183996	     -8.15661505	      4.04358299	     -7.18308629
      0.65000000	     -1.55995413	     -3.33493079	      8.73657783	      0.01713594	      0.98468527	      0.25879601	     26.75164563	      2.25192991	     -8.07184713	    -10.10017507	     14.94713437	    -18.23088577	    -14.16054050	    -24.92242930	     -7.04976028	     17.91881936	      5.62832881	     10.89270935	      0.00000000	      0.00000000	      0.00000000	      0.00000000	      0.00000000	      7.30296924	     -8.19327503	      4.30358159	     -7.15565546
      0.65416667	     -1.43258594	     -3.43152283	      8.67337769	      0.02373233	      0.98408963	      0.25919864	     26.90327508	      2.42507212	     -7.98063181	    -11.11800240	     14.43306056	    -18.24224685	    -14.06832248	    -25.15380268	     -7.09163048	     17.68975297	      5.09010033	     10.89695518	      0.00000000	      0.00000000	      0.00000000	      0.00000000	      0.00000000	      7.14209865	     -8.25333378	      4.53116844	     -7.13742360
      0.65833333	     -1.21484532	     -3.41503967	      8.49252583	      0.03044377	      0.98351354	      0.25963482	     27.01701849	      2.46814507	     -8.12162386	    -12.21014945	     11.88916454	    -18.63663061	     -5.56965301	    -25.51937667	     -6.95941415	     17.31629197	      4.55841914	     10.92484031	      0.00000000	      0.00000000	      0.00000000	      0.00000000	      0.00000000	      6.95173959	     -8.44744429	      4.58951999	     -6.87272978
      0.66250000	     -1.09054641	     -3.54366584	      8.43012132	      0.03713285	      0.98305606	      0.25994873	     27.13707047	      2.65410857	     -8.06127967	    -13.20324840	     11.46170561	    -18.60291181	     -5.59479480	    -25.68282856	     -7.01179822	     17.08742590	      3.90480234	     10.92022497	      0.00000000	      0.00000000	      0.00000000	      0.00000000	      0.00000000	      6.77102909	     -8.49067666	      4.85539146	     -6.84960501
      0.66666667	     -0.99554000	     -3.69532034	      8.46539390	      0.04374104	      0.98270184	      0.26014402	     27.19034777	      2.84491591	     -7.85908584	    -14.02780885	     11.17549084	    -18.54278219	     -5.60243434	    -25.76514680	     -7.13570493	     17.06151445	      3.25339983	     10.94871483	      0.00000000	      0.00000000	      0.00000000	      0.00000000	      0.00000000	      6.49363699	     -8.52445519	      5.15446927	     -6.81931987
      0.67083333	     -0.79137860	     -3.71486450	      8.06529054	      0.05045227	      0.98227527	      0.26096388	     27.40541441	      3.01764658	     -7.82197773	    -15.38415636	     10.67371159	    -18.22530123	     -4.94413182	    -26.04882977	     -6.91631866	     16.40728882	      2.51272135	     10.93690397	      0.00000000	      0.00000000	      0.00000000	      0.00000000	      0.00000000	      6.28145984	     -8.70452866	      5.22017627	     -6.33016451
      0.67500000	     -0.63506873	     -3.85678334	      7.94346550	      0.05721922	      0.98202530	      0.26132832	     27.47534695	      3.22178260	     -7.80581355	    -16.38759597	     10.22251044	    -18.11707201	     -4.77531720	    -26.17475715	     -6.93673116	     16.11868071	      1.71778384	     10.92245516	      0.00000000	      0.00000000	      0.00000000	      0.00000000	      0.00000000	      5.98961571	     -8.77414995	      5.49878597	     -6.31364364
      0.67916667	     -0.48665373	     -4.01070733	      7.83586106	      0.06404055	      0.98187195	      0.26167020	     27.51240382	      3.43222843	     -7.79571109	    -17.32921964	      9.88528912	    -18.04763484	     -4.69206003	    -26.24774383	     -6.96471779	     15.80554819	      0.84997904	     10.89989896	      0.00000000	      0.00000000	      0.00000000	      0.00000000	      0.00000000	      5.64262758	     -8.83193971	      5.79180673	     -6.26804596
